<svg width="24" height="24" viewBox="0 0 24 24" fill="none" xmlns="http://www.w3.org/2000/svg">
<path fill-rule="evenodd" clip-rule="evenodd" d="M15.7729 12.6656C17.1314 11.5656 18 9.88424 18 8C18 4.68629 15.3137 2 12 2C8.68629 2 6 4.68629 6 8C6 9.88424 6.86855 11.5656 8.22713 12.6656C4.61702 13.9912 2 17.1661 2 21C2 21.5523 2.44772 22 3 22C3.55228 22 4 21.5523 4 21C4 17.2415 7.46774 14 12 14C16.5323 14 20 17.2415 20 21C20 21.5523 20.4477 22 21 22C21.5523 22 22 21.5523 22 21C22 17.1661 19.383 13.9912 15.7729 12.6656ZM16 8C16 10.2091 14.2091 12 12 12C9.79086 12 8 10.2091 8 8C8 5.79086 9.79086 4 12 4C14.2091 4 16 5.79086 16 8Z" fill="#18181B"/>
</svg>
