<svg width="24" height="24" viewBox="0 0 24 24" fill="none" xmlns="http://www.w3.org/2000/svg">
<path fill-rule="evenodd" clip-rule="evenodd" d="M10.0436 16.0581L12 18.6667L13.9564 16.0581L14.791 15.9485C17.7301 15.5627 20 13.0448 20 10C20 6.68629 17.3137 4 14 4H10C6.68629 4 4 6.68629 4 10C4 13.0448 6.26989 15.5627 9.20896 15.9485L10.0436 16.0581ZM12 22L8.94865 17.9315C5.02723 17.4168 2 14.0619 2 10C2 5.58172 5.58172 2 10 2H14C18.4183 2 22 5.58172 22 10C22 14.0619 18.9728 17.4168 15.0513 17.9315L12 22Z" fill="#18181B"/>
</svg>
