<svg width="24" height="24" viewBox="0 0 24 24" fill="none" xmlns="http://www.w3.org/2000/svg">
<path d="M2 4C2 2.89543 2.89543 2 4 2H9C9.55229 2 10 2.44772 10 3C10 3.55228 9.55228 4 9 4H4V20H20V15C20 14.4477 20.4477 14 21 14C21.5523 14 22 14.4477 22 15V20C22 21.1046 21.1046 22 20 22H4C2.89543 22 2 21.1046 2 20V4Z" fill="#18181B"/>
<path d="M15 2C14.4477 2 14 2.44772 14 3C14 3.55228 14.4477 4 15 4H18.5869L12.7071 9.87975C12.3166 10.2703 12.3166 10.9034 12.7071 11.294C13.0976 11.6845 13.7308 11.6845 14.1213 11.294L20 5.41528V9C20 9.55229 20.4477 10 21 10C21.5523 10 22 9.55229 22 9V4C22 2.89543 21.1046 2 20 2H15Z" fill="#18181B"/>
</svg>
