<svg width="24" height="24" viewBox="0 0 24 24" fill="none" xmlns="http://www.w3.org/2000/svg">
<g clip-path="url(#clip0_411_11183)">
<path d="M4.92892 4.92893C4.53839 5.31946 4.53839 5.95262 4.92892 6.34315L10.5858 12L4.92892 17.6569C4.53839 18.0474 4.53839 18.6805 4.92892 19.0711C5.31944 19.4616 5.95261 19.4616 6.34313 19.0711L12 13.4142L17.6568 19.0711C18.0474 19.4616 18.6805 19.4616 19.0711 19.0711C19.4616 18.6805 19.4616 18.0474 19.0711 17.6569L13.4142 12L19.0711 6.34315C19.4616 5.95262 19.4616 5.31946 19.0711 4.92893C18.6805 4.53841 18.0474 4.53841 17.6568 4.92893L12 10.5858L6.34313 4.92893C5.95261 4.53841 5.31944 4.53841 4.92892 4.92893Z" fill="#18181B"/>
</g>
<defs>
<clipPath id="clip0_411_11183">
<rect width="24" height="24" fill="white"/>
</clipPath>
</defs>
</svg>
