<svg width="24" height="24" viewBox="0 0 24 24" fill="none" xmlns="http://www.w3.org/2000/svg">
<path d="M8.42361 13.25H6.6875C6.40104 13.25 6.16667 13.0391 6.16667 12.7812V11.2188C6.16667 10.9609 6.40104 10.75 6.6875 10.75H8.42361C8.71007 10.75 8.94444 10.9609 8.94444 11.2188V12.7812C8.94444 13.0391 8.71007 13.25 8.42361 13.25ZM13.1111 12.7812V11.2188C13.1111 10.9609 12.8767 10.75 12.5903 10.75H10.8542C10.5677 10.75 10.3333 10.9609 10.3333 11.2188V12.7812C10.3333 13.0391 10.5677 13.25 10.8542 13.25H12.5903C12.8767 13.25 13.1111 13.0391 13.1111 12.7812ZM17.2778 12.7812V11.2188C17.2778 10.9609 17.0434 10.75 16.7569 10.75H15.0208C14.7344 10.75 14.5 10.9609 14.5 11.2188V12.7812C14.5 13.0391 14.7344 13.25 15.0208 13.25H16.7569C17.0434 13.25 17.2778 13.0391 17.2778 12.7812ZM13.1111 16.5312V14.9688C13.1111 14.7109 12.8767 14.5 12.5903 14.5H10.8542C10.5677 14.5 10.3333 14.7109 10.3333 14.9688V16.5312C10.3333 16.7891 10.5677 17 10.8542 17H12.5903C12.8767 17 13.1111 16.7891 13.1111 16.5312ZM8.94444 16.5312V14.9688C8.94444 14.7109 8.71007 14.5 8.42361 14.5H6.6875C6.40104 14.5 6.16667 14.7109 6.16667 14.9688V16.5312C6.16667 16.7891 6.40104 17 6.6875 17H8.42361C8.71007 17 8.94444 16.7891 8.94444 16.5312ZM17.2778 16.5312V14.9688C17.2778 14.7109 17.0434 14.5 16.7569 14.5H15.0208C14.7344 14.5 14.5 14.7109 14.5 14.9688V16.5312C14.5 16.7891 14.7344 17 15.0208 17H16.7569C17.0434 17 17.2778 16.7891 17.2778 16.5312ZM21.4444 6.375V20.125C21.4444 21.1602 20.5113 22 19.3611 22H4.08333C2.93316 22 2 21.1602 2 20.125V6.375C2 5.33984 2.93316 4.5 4.08333 4.5H6.16667V2.46875C6.16667 2.21094 6.40104 2 6.6875 2H8.42361C8.71007 2 8.94444 2.21094 8.94444 2.46875V4.5H14.5V2.46875C14.5 2.21094 14.7344 2 15.0208 2H16.7569C17.0434 2 17.2778 2.21094 17.2778 2.46875V4.5H19.3611C20.5113 4.5 21.4444 5.33984 21.4444 6.375ZM19.3611 19.8906V8.25H4.08333V19.8906C4.08333 20.0195 4.20052 20.125 4.34375 20.125H19.1007C19.2439 20.125 19.3611 20.0195 19.3611 19.8906Z" fill="#18181B"/>
</svg>
