<svg width="24" height="24" viewBox="0 0 24 24" fill="none" xmlns="http://www.w3.org/2000/svg">
<path fill-rule="evenodd" clip-rule="evenodd" d="M22 12C22 17.5228 17.5228 22 12 22C6.47715 22 2 17.5228 2 12C2 6.47715 6.47715 2 12 2C17.5228 2 22 6.47715 22 12ZM18.2071 9.70711C18.5976 9.31658 18.5976 8.68342 18.2071 8.29289C17.8166 7.90237 17.1834 7.90237 16.7929 8.29289L10.5 14.5858L7.20711 11.2929C6.81658 10.9024 6.18342 10.9024 5.79289 11.2929C5.40237 11.6834 5.40237 12.3166 5.79289 12.7071L9.79289 16.7071C10.1834 17.0976 10.8166 17.0976 11.2071 16.7071L18.2071 9.70711Z" fill="#18181B"/>
</svg>
