<svg width="24" height="24" viewBox="0 0 24 24" fill="none" xmlns="http://www.w3.org/2000/svg">
<path fill-rule="evenodd" clip-rule="evenodd" d="M15.3 10H17.5781C20.0499 10 21.9301 12.2195 21.5237 14.6576L20.5785 20.3288C20.4178 21.2932 19.5834 22 18.6057 22H4.29999C3.19542 22 2.29999 21.1046 2.29999 20V12C2.29999 10.8954 3.19542 10 4.29999 10L6.29999 10L9.477 3.64598C9.94218 2.71562 11.0429 2.29715 12.0086 2.68346L14.0428 3.49711C14.8021 3.80084 15.3 4.53626 15.3 5.35407V10ZM8.29999 10.4721V20H18.6057L19.5509 14.3288C19.7541 13.1097 18.814 12 17.5781 12H15.3C14.1954 12 13.3 11.1046 13.3 10V5.35407L11.2659 4.54041L8.29999 10.4721ZM6.29999 12H4.29999L4.29999 20H6.29999V12Z" fill="#18181B"/>
</svg>
