<svg width="24" height="24" viewBox="0 0 24 24" fill="none" xmlns="http://www.w3.org/2000/svg">
<path fill-rule="evenodd" clip-rule="evenodd" d="M8.78885 5.89443C8.45007 6.572 7.75754 7 7 7H4V19H20V7H17C16.2425 7 15.5499 6.572 15.2111 5.89443L14.7639 5H9.23607L8.78885 5.89443ZM14.7639 3C15.5215 3 16.214 3.428 16.5528 4.10557L17 5H20C21.1046 5 22 5.89543 22 7V19C22 20.1046 21.1046 21 20 21H4C2.89543 21 2 20.1046 2 19V7C2 5.89543 2.89543 5 4 5H7L7.44721 4.10557C7.786 3.428 8.47852 3 9.23607 3H14.7639Z" fill="#18181B"/>
<path fill-rule="evenodd" clip-rule="evenodd" d="M12 16C13.6569 16 15 14.6569 15 13C15 11.3431 13.6569 10 12 10C10.3431 10 9 11.3431 9 13C9 14.6569 10.3431 16 12 16ZM12 18C14.7614 18 17 15.7614 17 13C17 10.2386 14.7614 8 12 8C9.23858 8 7 10.2386 7 13C7 15.7614 9.23858 18 12 18Z" fill="#18181B"/>
</svg>
