<svg width="24" height="24" viewBox="0 0 24 24" fill="none" xmlns="http://www.w3.org/2000/svg">
<path fill-rule="evenodd" clip-rule="evenodd" d="M16 12C16 14.2091 14.2091 16 12 16C9.79085 16 7.99999 14.2091 7.99999 12C7.99999 9.79086 9.79085 8 12 8C14.2091 8 16 9.79086 16 12ZM14 12C14 13.1046 13.1046 14 12 14C10.8954 14 9.99999 13.1046 9.99999 12C9.99999 10.8954 10.8954 10 12 10C13.1046 10 14 10.8954 14 12Z" fill="#18181B"/>
<path fill-rule="evenodd" clip-rule="evenodd" d="M21.8564 11.6539C21.9533 11.8754 21.9533 12.1246 21.8564 12.3461C21.1844 13.8812 18.1219 20 12 20C5.87811 20 2.81561 13.8812 2.14359 12.3461C2.04664 12.1246 2.04664 11.8754 2.14359 11.6539C2.81561 10.1188 5.87811 4 12 4C18.1219 4 21.1844 10.1188 21.8564 11.6539ZM17.5132 8.61956C18.6549 9.83676 19.4144 11.1849 19.8126 12C19.4144 12.8151 18.6549 14.1632 17.5132 15.3804C16.1317 16.8532 14.3274 18 12 18C9.67257 18 7.86828 16.8532 6.4868 15.3804C5.34505 14.1632 4.58558 12.8151 4.18738 12C4.58558 11.1849 5.34505 9.83676 6.4868 8.61956C7.86828 7.14677 9.67257 6 12 6C14.3274 6 16.1317 7.14677 17.5132 8.61956Z" fill="#18181B"/>
</svg>
