<svg width="24" height="24" viewBox="0 0 24 24" fill="none" xmlns="http://www.w3.org/2000/svg">
<path fill-rule="evenodd" clip-rule="evenodd" d="M16 12C16 14.2091 14.2091 16 12 16C9.79087 16 8.00001 14.2091 8.00001 12C8.00001 9.79086 9.79087 8 12 8C14.2091 8 16 9.79086 16 12ZM14 12C14 13.1046 13.1046 14 12 14C10.8954 14 10 13.1046 10 12C10 10.8954 10.8954 10 12 10C13.1046 10 14 10.8954 14 12Z" fill="#18181B"/>
<path fill-rule="evenodd" clip-rule="evenodd" d="M21.8564 11.6539C21.9534 11.8754 21.9534 12.1246 21.8564 12.3461C21.1844 13.8812 18.1219 20 12 20C5.87812 20 2.81562 13.8812 2.14361 12.3461C2.04665 12.1246 2.04665 11.8754 2.14361 11.6539C2.81562 10.1188 5.87812 4 12 4C18.1219 4 21.1844 10.1188 21.8564 11.6539ZM17.5132 8.61956C18.655 9.83676 19.4144 11.1849 19.8126 12C19.4144 12.8151 18.655 14.1632 17.5132 15.3804C16.1317 16.8532 14.3274 18 12 18C9.67258 18 7.8683 16.8532 6.48681 15.3804C5.34506 14.1632 4.5856 12.8151 4.1874 12C4.5856 11.1849 5.34506 9.83676 6.48681 8.61956C7.8683 7.14677 9.67258 6 12 6C14.3274 6 16.1317 7.14677 17.5132 8.61956Z" fill="#18181B"/>
</svg>
