<svg width="24" height="24" viewBox="0 0 24 24" fill="none" xmlns="http://www.w3.org/2000/svg">
<path d="M8 13C8 12.4477 8.44771 12 9 12H15C15.5523 12 16 12.4477 16 13C16 13.5523 15.5523 14 15 14H9C8.44771 14 8 13.5523 8 13Z" fill="#18181B"/>
<path d="M9 16C8.44771 16 8 16.4477 8 17C8 17.5523 8.44771 18 9 18H15C15.5523 18 16 17.5523 16 17C16 16.4477 15.5523 16 15 16H9Z" fill="#18181B"/>
<path fill-rule="evenodd" clip-rule="evenodd" d="M10.8284 2C10.298 2 9.78929 2.21071 9.41421 2.58579L4.58579 7.41421C4.21071 7.78929 4 8.29799 4 8.82843V20C4 21.1046 4.89543 22 6 22H18C19.1046 22 20 21.1046 20 20V4C20 2.89543 19.1046 2 18 2H10.8284ZM18 4H10.8284L6 8.82843V20H18V4Z" fill="#18181B"/>
</svg>
